<svg width="250" height="250" viewBox="0 0 250 250" fill="none" xmlns="http://www.w3.org/2000/svg">
<g filter="url(#filter0_b_62_168)">
<g filter="url(#filter1_dd_62_168)">
<rect x="50" y="30" width="150" height="150" rx="42" fill="black" shape-rendering="crispEdges"/>
</g>
<path d="M96.5 94.5586C95.0703 94.5586 94.3555 93.8203 94.3555 92.3438V83.3086C94.3555 79.9102 95.2227 77.3555 96.957 75.6445C98.6914 73.9336 101.27 73.0781 104.691 73.0781H113.727C115.203 73.0781 115.941 73.793 115.941 75.2227C115.941 76.6758 115.203 77.4023 113.727 77.4023H104.797C102.805 77.4023 101.281 77.918 100.227 78.9492C99.1953 79.9805 98.6797 81.5156 98.6797 83.5547V92.3438C98.6797 93.8203 97.9531 94.5586 96.5 94.5586ZM159.43 94.5586C158 94.5586 157.285 93.8203 157.285 92.3438V83.5547C157.285 81.5156 156.746 79.9805 155.668 78.9492C154.59 77.918 153.078 77.4023 151.133 77.4023H142.238C140.762 77.4023 140.023 76.6758 140.023 75.2227C140.023 73.793 140.762 73.0781 142.238 73.0781H151.238C154.684 73.0781 157.273 73.9453 159.008 75.6797C160.742 77.3906 161.609 79.9336 161.609 83.3086V92.3438C161.609 93.8203 160.883 94.5586 159.43 94.5586ZM104.691 140.297C101.27 140.297 98.6914 139.43 96.957 137.695C95.2227 135.984 94.3555 133.43 94.3555 130.031V121.031C94.3555 119.555 95.0703 118.816 96.5 118.816C97.9531 118.816 98.6797 119.555 98.6797 121.031V129.82C98.6797 131.859 99.1953 133.395 100.227 134.426C101.281 135.457 102.805 135.973 104.797 135.973H113.727C115.203 135.973 115.941 136.699 115.941 138.152C115.941 139.582 115.203 140.297 113.727 140.297H104.691ZM142.238 140.297C140.762 140.297 140.023 139.582 140.023 138.152C140.023 136.699 140.762 135.973 142.238 135.973H151.133C153.078 135.973 154.59 135.457 155.668 134.426C156.746 133.395 157.285 131.859 157.285 129.82V121.031C157.285 119.555 158 118.816 159.43 118.816C160.883 118.816 161.609 119.555 161.609 121.031V130.031C161.609 133.43 160.742 135.984 159.008 137.695C157.273 139.43 154.684 140.297 151.238 140.297H142.238ZM114.922 103.875C114.242 103.875 113.68 103.664 113.234 103.242C112.812 102.82 112.602 102.246 112.602 101.52V96.7734C112.602 96.0703 112.812 95.5078 113.234 95.0859C113.68 94.6406 114.242 94.418 114.922 94.418C115.602 94.418 116.164 94.6406 116.609 95.0859C117.055 95.5078 117.277 96.0703 117.277 96.7734V101.52C117.277 102.246 117.055 102.82 116.609 103.242C116.164 103.664 115.602 103.875 114.922 103.875ZM125.117 112.102C124.391 112.102 123.828 111.938 123.43 111.609C123.031 111.258 122.832 110.789 122.832 110.203C122.832 109.688 122.996 109.266 123.324 108.938C123.676 108.586 124.109 108.41 124.625 108.41H125.82C126.078 108.41 126.301 108.328 126.488 108.164C126.699 108 126.805 107.754 126.805 107.426V96.1758C126.805 95.6133 126.969 95.1797 127.297 94.875C127.625 94.5469 128.059 94.3828 128.598 94.3828C129.16 94.3828 129.605 94.5469 129.934 94.875C130.262 95.1797 130.426 95.6133 130.426 96.1758V107.109C130.426 108.75 130.004 109.992 129.16 110.836C128.316 111.68 127.074 112.102 125.434 112.102C125.387 112.102 125.328 112.102 125.258 112.102C125.211 112.102 125.164 112.102 125.117 112.102ZM140.832 103.875C140.129 103.875 139.566 103.664 139.145 103.242C138.723 102.82 138.512 102.246 138.512 101.52V96.7734C138.512 96.0703 138.723 95.5078 139.145 95.0859C139.566 94.6406 140.129 94.418 140.832 94.418C141.512 94.418 142.062 94.6406 142.484 95.0859C142.93 95.5078 143.152 96.0703 143.152 96.7734V101.52C143.152 102.246 142.93 102.82 142.484 103.242C142.062 103.664 141.512 103.875 140.832 103.875ZM127.719 123.457C125.68 123.457 123.664 123.059 121.672 122.262C119.68 121.441 117.992 120.258 116.609 118.711C116.422 118.523 116.27 118.324 116.152 118.113C116.059 117.879 116.012 117.633 116.012 117.375C116.012 116.836 116.188 116.402 116.539 116.074C116.891 115.746 117.324 115.582 117.84 115.582C118.168 115.582 118.438 115.652 118.648 115.793C118.883 115.934 119.129 116.121 119.387 116.355C120.418 117.41 121.684 118.254 123.184 118.887C124.684 119.52 126.195 119.836 127.719 119.836C129.336 119.836 130.883 119.52 132.359 118.887C133.859 118.23 135.113 117.387 136.121 116.355C136.613 115.84 137.117 115.582 137.633 115.582C138.125 115.582 138.547 115.746 138.898 116.074C139.25 116.402 139.426 116.836 139.426 117.375C139.426 117.68 139.379 117.949 139.285 118.184C139.191 118.395 139.062 118.582 138.898 118.746C137.398 120.223 135.664 121.383 133.695 122.227C131.75 123.047 129.758 123.457 127.719 123.457Z" fill="#A1F293"/>
</g>
<defs>
<filter id="filter0_b_62_168" x="26" y="19" width="198" height="185" filterUnits="userSpaceOnUse" color-interpolation-filters="sRGB">
<feFlood flood-opacity="0" result="BackgroundImageFix"/>
<feGaussianBlur in="BackgroundImageFix" stdDeviation="1"/>
<feComposite in2="SourceAlpha" operator="in" result="effect1_backgroundBlur_62_168"/>
<feBlend mode="normal" in="SourceGraphic" in2="effect1_backgroundBlur_62_168" result="shape"/>
</filter>
<filter id="filter1_dd_62_168" x="0" y="0" width="250" height="250" filterUnits="userSpaceOnUse" color-interpolation-filters="sRGB">
<feFlood flood-opacity="0" result="BackgroundImageFix"/>
<feColorMatrix in="SourceAlpha" type="matrix" values="0 0 0 0 0 0 0 0 0 0 0 0 0 0 0 0 0 0 127 0" result="hardAlpha"/>
<feOffset dy="20"/>
<feGaussianBlur stdDeviation="25"/>
<feComposite in2="hardAlpha" operator="out"/>
<feColorMatrix type="matrix" values="0 0 0 0 0 0 0 0 0 0 0 0 0 0 0 0 0 0 0.3 0"/>
<feBlend mode="normal" in2="BackgroundImageFix" result="effect1_dropShadow_62_168"/>
<feColorMatrix in="SourceAlpha" type="matrix" values="0 0 0 0 0 0 0 0 0 0 0 0 0 0 0 0 0 0 127 0" result="hardAlpha"/>
<feMorphology radius="1.5" operator="dilate" in="SourceAlpha" result="effect2_dropShadow_62_168"/>
<feOffset/>
<feComposite in2="hardAlpha" operator="out"/>
<feColorMatrix type="matrix" values="0 0 0 0 0.14902 0 0 0 0 0.14902 0 0 0 0 0.14902 0 0 0 1 0"/>
<feBlend mode="lighten" in2="effect1_dropShadow_62_168" result="effect2_dropShadow_62_168"/>
<feBlend mode="normal" in="SourceGraphic" in2="effect2_dropShadow_62_168" result="shape"/>
</filter>
</defs>
</svg>
